<?xml version="1.0" encoding="UTF-8"?>
<svg id="Layer_2" data-name="Layer 2" xmlns="http://www.w3.org/2000/svg" viewBox="0 0 218.83 71.62">
  <defs>
    <style>
      .cls-1 {
        fill: #2e3191;
      }

      .cls-2 {
        fill: #71d7ad;
      }
    </style>
  </defs>
  <g id="Layer_1-2" data-name="Layer 1">
    <rect class="cls-2" x="0" y="0" width="218.83" height="71.62" rx="35.81" ry="35.81"/>
    <g>
      <path class="cls-1" d="m76.98,21.87c0,.3-.05.58-.14.86h-3.92c.05-.14.08-.28.08-.44,0-.94-.63-1.71-2.13-1.71-2.13,0-3.09,1.52-3.09,4.17s1.02,4.11,2.84,4.11c1.71,0,2.4-1.1,2.43-2.62h3.95c.3,3.53-2.29,5.77-6.6,5.77-4.61,0-6.96-2.7-6.96-7.2,0-4.78,2.73-7.42,7.42-7.42,3.97,0,6.1,1.9,6.1,4.5Z"/>
      <path class="cls-1" d="m89.54,32c-.33-.61-.66-1.55-.72-2.29-.97,1.3-2.37,2.29-4.22,2.29-3.01,0-4.78-1.55-4.78-5.16v-9.22h4.39v8.78c0,1.52.66,2.07,1.77,2.07s1.9-.58,2.62-1.88v-8.97h4.25v8.56c0,2.57.14,4.03.52,5.35l-3.84.47Z"/>
      <path class="cls-1" d="m108.28,20.52c0,.61-.14,1.02-.28,1.24h-3.78c.03-.14.06-.3.06-.5,0-.72-.47-1.24-1.96-1.24-1.38,0-2.18.5-2.18,1.35,0,.61.33.97,1.21,1.21l3.28.75c2.71.58,4.08,1.57,4.08,3.84,0,3.01-2.29,4.83-6.79,4.83-3.51,0-5.99-.88-5.99-3.64,0-.39.06-.75.25-1.05l3.78.03c-.03.11-.06.28-.06.47,0,.91.77,1.38,2.1,1.38s2.1-.58,2.1-1.52c0-.75-.44-1.05-1.6-1.35l-3.04-.69c-2.48-.47-3.45-1.85-3.45-3.75,0-2.81,2.35-4.5,6.6-4.5,3.34,0,5.66.99,5.66,3.15Z"/>
      <path class="cls-1" d="m117.08,26.76c.03,1.08.5,1.63,1.57,1.63.55,0,1.1-.14,1.52-.3v3.31c-.5.33-1.66.61-3.06.61-2.98,0-4.42-1.85-4.42-4.36v-6.65h-2.57v-2.59l2.62-.72,1.27-4.2h3.06v4.14h3.73v3.37h-3.73v5.77Z"/>
      <path class="cls-1" d="m129.97,17.38c-4.66,0-7.29,2.82-7.29,7.34s2.65,7.29,7.29,7.29,7.26-2.73,7.26-7.29-2.59-7.34-7.26-7.34Zm0,11.32c-2.01,0-2.95-1.49-2.95-4s.94-3.97,2.95-3.97,2.93,1.46,2.93,3.97-.94,4-2.93,4Z"/>
      <path class="cls-1" d="m161.74,21.98v9.74h-4.36v-9.03c0-1.3-.77-1.68-1.68-1.68-1.16,0-1.9.44-2.48,1.41v9.3h-4.39v-9.03c0-1.24-.69-1.68-1.66-1.68-1.19,0-1.88.47-2.48,1.44v9.27h-4.39v-8.5c0-2.65-.14-4.08-.55-5.35l4-.44c.33.5.63,1.35.72,2.07.91-1.32,2.4-2.1,4.55-2.1,1.88,0,3.2.66,3.81,2.18.88-1.3,2.43-2.18,4.64-2.18,2.79,0,4.28,1.35,4.28,4.58Z"/>
      <path class="cls-1" d="m51.97,53.42c-.5,0-.75-.19-.75-.99v-5.44c0-3.7-2.29-5.24-6.46-5.24s-5.91,1.3-5.91,3.51c0,.39.08.86.25,1.19h3.7c-.11-.14-.17-.47-.17-.69,0-.77.61-1.3,1.96-1.3s2.24.61,2.24,2.18v1.02l-4.53.8c-2.79.44-4,1.57-4,3.92,0,2.73,1.9,4,4.39,4,1.6,0,3.42-.63,4.44-2.02.36,1.21,1.27,1.99,2.98,1.99.88,0,1.93-.17,2.46-.61v-2.43c-.14.08-.44.11-.61.11Zm-5.13-1.38c-.88,1.05-1.82,1.44-2.7,1.44-1.05,0-1.6-.63-1.6-1.52s.44-1.27,1.57-1.49l2.73-.55v2.13Z"/>
      <path class="cls-1" d="m68.39,46.13v9.96h-4.39v-8.97c0-1.27-.5-1.74-1.68-1.74-.94,0-1.9.41-2.62,1.49v9.22h-4.39v-8.5c0-2.57-.14-4.03-.55-5.35l4-.47c.33.66.66,1.63.72,2.43,1.08-1.77,2.46-2.43,4.61-2.43,3.09,0,4.31,1.41,4.31,4.36Z"/>
      <rect class="cls-1" x="71.92" y="35.26" width="4.39" height="4.17"/>
      <rect class="cls-1" x="71.92" y="41.99" width="4.39" height="14.1"/>
      <path class="cls-1" d="m101.51,46.36v9.74h-4.36v-9.03c0-1.3-.77-1.68-1.68-1.68-1.16,0-1.9.44-2.48,1.41v9.3h-4.39v-9.03c0-1.24-.69-1.68-1.66-1.68-1.19,0-1.88.47-2.48,1.44v9.27h-4.39v-8.5c0-2.65-.14-4.08-.55-5.35l4-.44c.33.5.63,1.35.72,2.07.91-1.32,2.4-2.1,4.55-2.1,1.88,0,3.2.66,3.81,2.18.88-1.3,2.43-2.18,4.64-2.18,2.79,0,4.28,1.35,4.28,4.58Z"/>
      <path class="cls-1" d="m118.03,53.42c-.5,0-.74-.19-.74-.99v-5.44c0-3.7-2.29-5.24-6.46-5.24s-5.91,1.3-5.91,3.51c0,.39.08.86.25,1.19h3.7c-.11-.14-.17-.47-.17-.69,0-.77.61-1.3,1.96-1.3s2.24.61,2.24,2.18v1.02l-4.53.8c-2.79.44-4,1.57-4,3.92,0,2.73,1.9,4,4.39,4,1.6,0,3.42-.63,4.44-2.02.36,1.21,1.27,1.99,2.98,1.99.88,0,1.93-.17,2.46-.61v-2.43c-.14.08-.44.11-.61.11Zm-5.13-1.38c-.88,1.05-1.82,1.44-2.71,1.44-1.05,0-1.6-.63-1.6-1.52s.44-1.27,1.57-1.49l2.73-.55v2.13Z"/>
      <path class="cls-1" d="m126.62,51.13c.03,1.08.5,1.63,1.57,1.63.55,0,1.1-.14,1.52-.3v3.31c-.5.33-1.66.61-3.06.61-2.98,0-4.42-1.85-4.42-4.36v-6.65h-2.57v-2.59l2.62-.72,1.27-4.2h3.06v4.14h3.73v3.37h-3.73v5.77Z"/>
      <rect class="cls-1" x="133.32" y="35.26" width="4.39" height="4.17"/>
      <rect class="cls-1" x="133.32" y="41.99" width="4.39" height="14.1"/>
      <path class="cls-1" d="m147.89,41.75c-4.66,0-7.29,2.82-7.29,7.34s2.65,7.29,7.29,7.29,7.26-2.73,7.26-7.29-2.59-7.34-7.26-7.34Zm0,11.32c-2.01,0-2.95-1.49-2.95-4s.94-3.97,2.95-3.97,2.93,1.46,2.93,3.97-.94,4-2.93,4Z"/>
      <path class="cls-1" d="m171.3,46.13v9.96h-4.39v-8.97c0-1.27-.5-1.74-1.68-1.74-.94,0-1.9.41-2.62,1.49v9.22h-4.39v-8.5c0-2.57-.14-4.03-.55-5.35l4-.47c.33.66.66,1.63.72,2.43,1.08-1.77,2.46-2.43,4.61-2.43,3.09,0,4.31,1.41,4.31,4.36Z"/>
      <path class="cls-1" d="m186.45,44.89c0,.61-.14,1.02-.28,1.24h-3.78c.03-.14.06-.3.06-.5,0-.72-.47-1.24-1.96-1.24-1.38,0-2.18.5-2.18,1.35,0,.61.33.97,1.21,1.21l3.28.75c2.71.58,4.08,1.57,4.08,3.84,0,3.01-2.29,4.83-6.79,4.83-3.51,0-5.99-.88-5.99-3.64,0-.39.06-.75.25-1.05l3.78.03c-.03.11-.06.28-.06.47,0,.91.77,1.38,2.1,1.38s2.1-.58,2.1-1.52c0-.75-.44-1.05-1.6-1.35l-3.04-.69c-2.48-.47-3.45-1.85-3.45-3.75,0-2.82,2.35-4.5,6.6-4.5,3.34,0,5.66.99,5.66,3.15Z"/>
    </g>
  </g>
</svg>