<?xml version="1.0" encoding="UTF-8"?><svg id="Layer_2" xmlns="http://www.w3.org/2000/svg" viewBox="0 0 339.58 127.34"><defs><style>.cls-1{fill:#b3faff;}.cls-2{fill:#db71bc;}</style></defs><g id="Layer_1-2"><g><rect class="cls-2" width="339.58" height="127.34" rx="10" ry="10"/><g><path class="cls-1" d="M106.47,41.31c0,.54-.1,1.03-.25,1.52h-6.97c.1-.25,.15-.49,.15-.79,0-1.67-1.13-3.04-3.78-3.04-3.78,0-5.5,2.7-5.5,7.41s1.82,7.31,5.05,7.31c3.04,0,4.27-1.96,4.32-4.66h7.02c.54,6.28-4.07,10.26-11.73,10.26-8.2,0-12.37-4.81-12.37-12.81,0-8.49,4.86-13.2,13.2-13.2,7.07,0,10.84,3.39,10.84,8Z"/><path class="cls-1" d="M128.8,59.32c-.59-1.08-1.18-2.75-1.28-4.07-1.72,2.31-4.22,4.07-7.51,4.07-5.35,0-8.49-2.75-8.49-9.18v-16.39h7.8v15.6c0,2.7,1.18,3.68,3.14,3.68s3.39-1.03,4.66-3.34v-15.95h7.56v15.21c0,4.56,.25,7.17,.93,9.52l-6.82,.83Z"/><path class="cls-1" d="M162.11,38.91c0,1.08-.25,1.82-.49,2.21h-6.72c.05-.25,.1-.54,.1-.88,0-1.28-.83-2.21-3.48-2.21-2.45,0-3.88,.88-3.88,2.4,0,1.08,.59,1.72,2.16,2.16l5.84,1.32c4.81,1.03,7.26,2.8,7.26,6.82,0,5.35-4.07,8.59-12.07,8.59-6.23,0-10.65-1.57-10.65-6.48,0-.69,.1-1.33,.44-1.86l6.72,.05c-.05,.2-.1,.49-.1,.83,0,1.62,1.37,2.45,3.73,2.45s3.73-1.03,3.73-2.7c0-1.33-.79-1.87-2.85-2.4l-5.4-1.23c-4.42-.83-6.13-3.29-6.13-6.67,0-5,4.17-8,11.73-8,5.94,0,10.06,1.77,10.06,5.59Z"/><path class="cls-1" d="M177.76,50c.05,1.91,.88,2.9,2.8,2.9,.98,0,1.96-.25,2.7-.54v5.89c-.88,.59-2.94,1.08-5.45,1.08-5.3,0-7.85-3.29-7.85-7.75v-11.83h-4.56v-4.61l4.66-1.28,2.26-7.46h5.45v7.36h6.62v5.99h-6.62v10.26Z"/><path class="cls-1" d="M213.58,46.37c0,8.1-4.66,12.96-12.91,12.96s-12.96-4.86-12.96-12.96,4.66-13.05,12.96-13.05,12.91,5.01,12.91,13.05Zm-18.16-.05c0,4.47,1.67,7.12,5.25,7.12s5.2-2.65,5.2-7.12-1.67-7.07-5.2-7.07-5.25,2.6-5.25,7.07Z"/><path class="cls-1" d="M257.16,41.51v17.32h-7.75v-16.05c0-2.31-1.37-2.99-2.99-2.99-2.06,0-3.39,.79-4.42,2.5v16.54h-7.8v-16.05c0-2.21-1.23-2.99-2.94-2.99-2.11,0-3.34,.83-4.42,2.55v16.49h-7.8v-15.11c0-4.71-.25-7.26-.98-9.52l7.12-.79c.59,.88,1.13,2.4,1.28,3.68,1.62-2.36,4.27-3.73,8.1-3.73,3.34,0,5.69,1.18,6.77,3.88,1.57-2.31,4.32-3.88,8.24-3.88,4.96,0,7.61,2.4,7.61,8.15Z"/></g><g><path class="cls-1" d="M63.88,97.2v4.32c-.93,.79-2.8,1.08-4.37,1.08-3.04,0-4.66-1.37-5.3-3.53-1.82,2.45-5.05,3.58-7.9,3.58-4.42,0-7.8-2.26-7.8-7.12,0-4.17,2.16-6.18,7.12-6.97l8.05-1.42v-1.82c0-2.8-1.47-3.88-3.97-3.88s-3.48,.93-3.48,2.31c0,.39,.1,.98,.29,1.23h-6.58c-.29-.59-.44-1.42-.44-2.11,0-3.93,3.29-6.23,10.5-6.23s11.48,2.75,11.48,9.32v9.67c0,1.42,.44,1.77,1.33,1.77,.29,0,.83-.05,1.08-.2Zm-10.21-2.26v-3.78l-4.86,.98c-2.01,.39-2.8,1.13-2.8,2.65s.98,2.7,2.85,2.7c1.57,0,3.24-.69,4.81-2.55Z"/><path class="cls-1" d="M92,84.45v17.71h-7.8v-15.95c0-2.26-.88-3.09-2.99-3.09-1.67,0-3.39,.74-4.66,2.65v16.39h-7.8v-15.11c0-4.56-.25-7.16-.98-9.52l7.12-.83c.59,1.18,1.18,2.9,1.28,4.32,1.91-3.14,4.37-4.32,8.2-4.32,5.5,0,7.66,2.5,7.66,7.75Z"/><path class="cls-1" d="M98.27,72.52v-7.41h7.8v7.41h-7.8Zm0,29.64v-25.08h7.8v25.08h-7.8Z"/><path class="cls-1" d="M150.88,84.84v17.32h-7.75v-16.05c0-2.31-1.37-2.99-2.99-2.99-2.06,0-3.39,.79-4.42,2.5v16.54h-7.8v-16.05c0-2.21-1.23-2.99-2.94-2.99-2.11,0-3.34,.83-4.42,2.55v16.49h-7.8v-15.11c0-4.71-.25-7.26-.98-9.52l7.12-.79c.59,.88,1.13,2.4,1.28,3.68,1.62-2.36,4.27-3.73,8.1-3.73,3.34,0,5.69,1.18,6.77,3.88,1.57-2.31,4.32-3.88,8.24-3.88,4.96,0,7.61,2.4,7.61,8.15Z"/><path class="cls-1" d="M181.34,97.2v4.32c-.93,.79-2.8,1.08-4.37,1.08-3.04,0-4.66-1.37-5.3-3.53-1.82,2.45-5.05,3.58-7.9,3.58-4.42,0-7.8-2.26-7.8-7.12,0-4.17,2.16-6.18,7.12-6.97l8.05-1.42v-1.82c0-2.8-1.47-3.88-3.98-3.88s-3.48,.93-3.48,2.31c0,.39,.1,.98,.29,1.23h-6.58c-.29-.59-.44-1.42-.44-2.11,0-3.93,3.29-6.23,10.5-6.23s11.48,2.75,11.48,9.32v9.67c0,1.42,.44,1.77,1.32,1.77,.29,0,.83-.05,1.08-.2Zm-10.21-2.26v-3.78l-4.86,.98c-2.01,.39-2.8,1.13-2.8,2.65s.98,2.7,2.85,2.7c1.57,0,3.24-.69,4.81-2.55Z"/><path class="cls-1" d="M195.52,93.33c.05,1.91,.88,2.9,2.8,2.9,.98,0,1.96-.25,2.7-.54v5.89c-.88,.59-2.94,1.08-5.45,1.08-5.3,0-7.85-3.29-7.85-7.75v-11.83h-4.56v-4.61l4.66-1.28,2.26-7.46h5.45v7.36h6.62v5.99h-6.62v10.26Z"/><path class="cls-1" d="M207.45,72.52v-7.41h7.8v7.41h-7.8Zm0,29.64v-25.08h7.8v25.08h-7.8Z"/><path class="cls-1" d="M246.26,89.7c0,8.1-4.66,12.96-12.91,12.96s-12.96-4.86-12.96-12.96,4.66-13.05,12.96-13.05,12.91,5.01,12.91,13.05Zm-18.16-.05c0,4.47,1.67,7.12,5.25,7.12s5.2-2.65,5.2-7.12-1.67-7.07-5.2-7.07-5.25,2.6-5.25,7.07Z"/><path class="cls-1" d="M274.96,84.45v17.71h-7.8v-15.95c0-2.26-.88-3.09-2.99-3.09-1.67,0-3.39,.74-4.66,2.65v16.39h-7.8v-15.11c0-4.56-.25-7.16-.98-9.52l7.12-.83c.59,1.18,1.18,2.9,1.28,4.32,1.91-3.14,4.37-4.32,8.19-4.32,5.5,0,7.66,2.5,7.66,7.75Z"/><path class="cls-1" d="M301.9,82.24c0,1.08-.25,1.82-.49,2.21h-6.72c.05-.25,.1-.54,.1-.88,0-1.28-.83-2.21-3.48-2.21-2.45,0-3.88,.88-3.88,2.4,0,1.08,.59,1.72,2.16,2.16l5.84,1.33c4.81,1.03,7.26,2.8,7.26,6.82,0,5.35-4.07,8.59-12.07,8.59-6.23,0-10.65-1.57-10.65-6.48,0-.69,.1-1.32,.44-1.86l6.72,.05c-.05,.2-.1,.49-.1,.83,0,1.62,1.37,2.45,3.73,2.45s3.73-1.03,3.73-2.7c0-1.32-.79-1.86-2.85-2.4l-5.4-1.23c-4.42-.83-6.13-3.29-6.13-6.67,0-5.01,4.17-8,11.73-8,5.94,0,10.06,1.77,10.06,5.59Z"/></g></g></g></svg>