<?xml version="1.0" encoding="UTF-8"?><svg id="Layer_2" xmlns="http://www.w3.org/2000/svg" viewBox="0 0 77.95 35.8"><defs><style>.cls-1{fill:#fff;}.cls-2{fill:#2e3192;}</style></defs><g id="Layer_1-2"><g><path class="cls-2" d="M60.05,35.8H17.9C8.05,35.8,0,27.74,0,17.9H0C0,8.05,8.05,0,17.9,0H60.05c9.84,0,17.9,8.05,17.9,17.9h0c0,9.84-8.05,17.9-17.9,17.9Z"/><circle class="cls-1" cx="59.66" cy="17.9" r="12.78" transform="translate(-2.31 24.19) rotate(-22.5)"/><g><path class="cls-1" d="M21.68,23.13l-.27,3.42H10.32V9.17h11.09l.27,3.42h-7.27v3.65h6.77l-.3,2.97h-6.47v3.92h7.27Z"/><path class="cls-1" d="M36.47,20.31c-.3-1.02-.3-1.77-.3-2.52V9.14h3.87V26.5l-3.27,.15-8.02-11.17-.02,.05c.3,.97,.3,1.62,.3,2.22v8.79h-3.95V9.17l3.27-.15,8.07,11.34,.05-.05Z"/></g></g></g></svg>