<?xml version="1.0" encoding="UTF-8"?><svg id="Layer_2" xmlns="http://www.w3.org/2000/svg" viewBox="0 0 77.95 35.8"><defs><style>.cls-1{fill:#fff;}.cls-2{fill:#2e3192;}</style></defs><g id="Layer_1-2"><g><g><path class="cls-1" d="M60.05,35.8H17.9C8.05,35.8,0,27.74,0,17.9H0C0,8.05,8.05,0,17.9,0H60.05c9.84,0,17.9,8.05,17.9,17.9h0c0,9.84-8.05,17.9-17.9,17.9Z"/><circle class="cls-2" cx="18.05" cy="17.9" r="12.78" transform="translate(-3.52 31.35) rotate(-76.72)"/></g><g><path class="cls-2" d="M49.01,23.03l-.27,3.42h-11.09V9.07h11.09l.27,3.42h-7.27v3.65h6.77l-.3,2.97h-6.47v3.92h7.27Z"/><path class="cls-2" d="M63.8,20.21c-.3-1.02-.3-1.77-.3-2.52V9.04h3.87V26.4l-3.27,.15-8.02-11.17-.02,.05c.3,.97,.3,1.62,.3,2.22v8.79h-3.95V9.07l3.27-.15,8.07,11.34,.05-.05Z"/></g></g></g></svg>