<?xml version="1.0" encoding="UTF-8"?><svg id="Layer_2" xmlns="http://www.w3.org/2000/svg" viewBox="0 0 339.58 127.34"><defs><style>.cls-1{fill:#2e3192;}.cls-2{fill:#b8ffdb;}</style></defs><g id="Layer_1-2"><g><rect class="cls-1" width="339.58" height="127.34" rx="10" ry="10"/><g><g><path class="cls-2" d="M90.48,54.81c6.33,.54,8.74,2.99,8.74,7.21,0,5.69-4.86,8.83-13.94,8.83-8.15,0-12.32-2.55-12.32-7.46,0-2.36,1.03-4.22,3.39-5.64-1.03-.88-1.62-2.11-1.62-3.78,0-2.26,1.13-3.68,2.55-4.76-2.31-1.67-3.53-4.12-3.53-7.07,0-5.45,4.37-8.83,11.48-8.83,1.62,0,3.14,.2,4.47,.49,1.03-4.12,3.29-5.99,7.95-5.99v5.45c-2.5,0-3.83,.49-4.81,1.86,2.5,1.52,3.93,3.93,3.93,7.02,0,5.45-4.22,9.23-11.53,9.23-1.62,0-3.04-.2-4.37-.54-.25,.39-.39,.79-.39,1.32,0,1.28,1.03,1.91,3.19,2.11l6.82,.54Zm1.67,7.7c0-1.23-.79-2.01-3.58-2.31l-6.53-.59-.29-.05c-1.87,.93-2.45,1.86-2.45,3.19-.05,2.11,1.91,3.29,6.38,3.29,4.17,0,6.48-1.32,6.48-3.53Zm-11.24-20.22c0,2.4,1.57,4.22,4.37,4.22,2.99,0,4.42-1.91,4.42-4.17,0-2.55-1.57-4.17-4.42-4.17s-4.37,1.62-4.37,4.12Z"/><path class="cls-2" d="M119.13,33.71l-.05,7.16c-.79-.54-2.01-.79-3.14-.79-2.16,0-3.88,1.32-5.05,5.4v13.35h-7.8v-18.75c0-2.06-.2-3.58-.88-5.59l6.28-1.13c.98,1.42,1.62,3.34,1.67,5.64,1.13-3.88,3.14-5.64,6.28-5.64,1.08,0,2.11,.15,2.7,.34Z"/><path class="cls-2" d="M147.3,53.88v4.32c-.93,.79-2.8,1.08-4.37,1.08-3.04,0-4.66-1.37-5.3-3.53-1.82,2.45-5.05,3.58-7.9,3.58-4.42,0-7.8-2.26-7.8-7.12,0-4.17,2.16-6.18,7.12-6.97l8.05-1.42v-1.82c0-2.8-1.47-3.88-3.98-3.88s-3.48,.93-3.48,2.31c0,.39,.1,.98,.29,1.23h-6.58c-.29-.59-.44-1.42-.44-2.11,0-3.93,3.29-6.23,10.5-6.23s11.48,2.75,11.48,9.32v9.67c0,1.42,.44,1.77,1.32,1.77,.29,0,.83-.05,1.08-.2Zm-10.21-2.26v-3.78l-4.86,.98c-2.01,.39-2.8,1.13-2.8,2.65s.98,2.7,2.85,2.7c1.57,0,3.24-.69,4.81-2.55Z"/><path class="cls-2" d="M175.76,45.68c0,9.42-5.5,13.64-12.46,13.64-1.33,0-2.6-.2-3.73-.54v11.63h-7.8v-28.22c0-3.09-.2-6.18-.59-7.8l6.38-.98c.69,1.23,1.08,2.45,1.28,3.53,1.42-2.31,3.58-3.58,7.02-3.58,6.23,0,9.91,3.68,9.91,12.32Zm-7.9,.64c0-4.32-1.47-6.62-4.71-6.62-1.37,0-2.55,.54-3.58,1.82v11.43c.88,.29,1.86,.49,2.7,.49,3.29,0,5.59-2.16,5.59-7.12Z"/><path class="cls-2" d="M204.75,41.12v17.72h-7.8v-15.95c0-2.26-.88-3.09-2.99-3.09-1.82,0-3.58,.74-4.91,2.6v16.44h-7.8V26.93c0-1.86-.1-3.63-.29-4.86l7.7-.74c.29,1.47,.39,3.09,.39,5.01v10.94c1.82-2.85,4.32-3.97,8.05-3.97,5.5,0,7.66,2.6,7.66,7.8Z"/><path class="cls-2" d="M210.98,29.19v-7.41h7.8v7.41h-7.8Zm0,29.64v-25.08h7.8v25.08h-7.8Z"/><path class="cls-2" d="M247.98,41.31c0,.54-.1,1.03-.25,1.52h-6.97c.1-.25,.15-.49,.15-.79,0-1.67-1.13-3.04-3.78-3.04-3.78,0-5.5,2.7-5.5,7.41s1.82,7.31,5.05,7.31c3.04,0,4.27-1.96,4.32-4.66h7.02c.54,6.28-4.07,10.26-11.73,10.26-8.2,0-12.37-4.81-12.37-12.81,0-8.49,4.86-13.2,13.2-13.2,7.07,0,10.85,3.39,10.85,8Z"/></g><g><path class="cls-2" d="M139.54,94.75c0,2.65,.2,4.17,.83,6.58l-5.64,1.32c-1.08-.88-1.72-1.96-1.96-3.29h-.25c-1.42,2.01-4.12,3.29-7.61,3.29-5.84,0-9.81-4.76-9.81-13.05,0-8.88,5.15-12.96,12.32-12.96,1.62,0,2.99,.25,4.27,.69v-12.22h7.85v29.64Zm-7.8-.59v-11.34c-.83-.39-1.91-.64-2.99-.64-3.68,0-5.74,2.31-5.74,7.26,0,4.61,1.82,7.36,4.61,7.36,1.82,0,3.24-.88,4.12-2.65Z"/><path class="cls-2" d="M168.73,94.01c.1,.15,.15,.69,.15,1.23,0,3.63-3.34,7.41-10.7,7.41-8.44,0-13.3-5.5-13.3-12.96,.05-7.8,4.76-13.05,13.35-13.05,7.36,0,10.94,4.66,10.94,9.77,0,1.08-.15,2.99-.34,3.97h-16c.2,4.02,2.06,6.62,5.45,6.62,2.9,0,4.07-1.42,4.07-2.65,0-.15,0-.29-.05-.34h6.43Zm-15.65-7.7h9.08c.05-.15,.1-.39,.1-.79,0-2.6-1.42-3.97-4.02-3.97s-4.47,1.57-5.15,4.76Z"/><path class="cls-2" d="M195.08,82.24c0,1.08-.25,1.82-.49,2.21h-6.72c.05-.25,.1-.54,.1-.88,0-1.28-.83-2.21-3.48-2.21-2.45,0-3.88,.88-3.88,2.4,0,1.08,.59,1.72,2.16,2.16l5.84,1.32c4.81,1.03,7.26,2.8,7.26,6.82,0,5.35-4.07,8.59-12.07,8.59-6.23,0-10.65-1.57-10.65-6.48,0-.69,.1-1.32,.44-1.86l6.72,.05c-.05,.2-.1,.49-.1,.83,0,1.62,1.37,2.45,3.73,2.45s3.73-1.03,3.73-2.7c0-1.32-.79-1.86-2.85-2.4l-5.4-1.23c-4.42-.83-6.13-3.29-6.13-6.67,0-5.01,4.17-8,11.73-8,5.94,0,10.06,1.77,10.06,5.59Z"/><path class="cls-2" d="M200.57,72.52v-7.41h7.8v7.41h-7.8Zm0,29.64v-25.08h7.8v25.08h-7.8Z"/><path class="cls-2" d="M230.99,98.14c6.33,.54,8.74,2.99,8.74,7.21,0,5.69-4.86,8.83-13.94,8.83-8.15,0-12.32-2.55-12.32-7.46,0-2.36,1.03-4.22,3.39-5.64-1.03-.88-1.62-2.11-1.62-3.78,0-2.26,1.13-3.68,2.55-4.76-2.31-1.67-3.53-4.12-3.53-7.07,0-5.45,4.37-8.83,11.48-8.83,1.62,0,3.14,.2,4.47,.49,1.03-4.12,3.29-5.99,7.95-5.99v5.45c-2.5,0-3.83,.49-4.81,1.86,2.5,1.52,3.93,3.93,3.93,7.02,0,5.45-4.22,9.23-11.53,9.23-1.62,0-3.04-.2-4.37-.54-.25,.39-.39,.79-.39,1.32,0,1.28,1.03,1.91,3.19,2.11l6.82,.54Zm1.67,7.7c0-1.23-.79-2.01-3.58-2.31l-6.53-.59-.29-.05c-1.87,.93-2.45,1.86-2.45,3.19-.05,2.11,1.91,3.29,6.38,3.29,4.17,0,6.48-1.32,6.48-3.53Zm-11.24-20.22c0,2.4,1.57,4.22,4.37,4.22,2.99,0,4.42-1.91,4.42-4.17,0-2.55-1.57-4.17-4.42-4.17s-4.37,1.62-4.37,4.12Z"/><path class="cls-2" d="M266.96,84.45v17.72h-7.8v-15.95c0-2.26-.88-3.09-2.99-3.09-1.67,0-3.39,.74-4.66,2.65v16.39h-7.8v-15.11c0-4.56-.25-7.16-.98-9.52l7.12-.83c.59,1.18,1.18,2.9,1.28,4.32,1.91-3.14,4.37-4.32,8.2-4.32,5.5,0,7.66,2.5,7.66,7.75Z"/></g></g></g></g></svg>