<?xml version="1.0" encoding="UTF-8"?><svg id="Layer_2" xmlns="http://www.w3.org/2000/svg" viewBox="0 0 339.58 127.34"><defs><style>.cls-1{fill:#db71bc;}.cls-2{fill:#71d8ae;}</style></defs><g id="Layer_1-2"><g><rect class="cls-1" y="0" width="339.58" height="127.34" rx="10" ry="10"/><g><path class="cls-2" d="M74.47,35.49v-7.41h7.8v7.41h-7.8Zm0,29.64v-25.08h7.8v25.08h-7.8Z"/><path class="cls-2" d="M112.21,47.42v17.72h-7.8v-15.95c0-2.26-.88-3.09-2.99-3.09-1.67,0-3.39,.74-4.66,2.65v16.39h-7.8v-15.11c0-4.56-.25-7.16-.98-9.52l7.12-.83c.59,1.18,1.18,2.9,1.28,4.32,1.91-3.14,4.37-4.32,8.2-4.32,5.5,0,7.66,2.5,7.66,7.75Z"/><path class="cls-2" d="M128.64,56.3c.05,1.91,.88,2.9,2.8,2.9,.98,0,1.96-.25,2.7-.54v5.89c-.88,.59-2.94,1.08-5.45,1.08-5.3,0-7.85-3.29-7.85-7.75v-11.83h-4.56v-4.61l4.66-1.28,2.26-7.46h5.45v7.36h6.62v5.99h-6.62v10.26Z"/><path class="cls-2" d="M156.71,40.01l-.05,7.16c-.79-.54-2.01-.79-3.14-.79-2.16,0-3.88,1.32-5.05,5.4v13.35h-7.8v-18.75c0-2.06-.2-3.58-.88-5.59l6.28-1.13c.98,1.42,1.62,3.34,1.67,5.64,1.13-3.88,3.14-5.64,6.28-5.64,1.08,0,2.11,.15,2.7,.34Z"/><path class="cls-2" d="M185.17,52.67c0,8.1-4.66,12.96-12.91,12.96s-12.96-4.86-12.96-12.96,4.66-13.05,12.96-13.05,12.91,5.01,12.91,13.05Zm-18.16-.05c0,4.47,1.67,7.12,5.25,7.12s5.2-2.65,5.2-7.12-1.67-7.07-5.2-7.07-5.25,2.6-5.25,7.07Z"/><path class="cls-2" d="M237.13,65.13h-8l-1.82-2.11c-2.5,1.72-6.04,2.6-10.45,2.6-9.08,0-13.59-2.9-13.59-9.32,0-3.39,1.18-5.4,3.73-7.61l2.16-1.86c-1.96-2.01-3.14-4.02-3.14-7.16,0-5.69,4.22-9.18,12.66-9.18,7.95,0,11.83,2.4,11.83,6.53,0,1.08-.15,1.96-.59,2.99h-7.07c.1-.29,.15-.88,.15-1.18,0-1.52-1.28-2.45-4.37-2.45-3.44,0-5.1,1.18-5.1,3.73,0,1.86,1.37,3.09,3.63,5.25l8.39,7.8v-6.48h6.58v6.38c0,2.06-.34,3.93-1.08,5.5l6.08,6.28v.29Zm-19.92-5.1c2.45,0,4.47-.44,5.89-1.47l-.93-.93-7.75-7.56-1.32,1.13c-1.72,1.47-2.55,2.5-2.55,4.42,0,2.85,2.01,4.42,6.67,4.42Z"/></g><g><path class="cls-2" d="M147.33,92c0,8.1-4.66,12.96-12.91,12.96s-12.96-4.86-12.96-12.96,4.66-13.05,12.96-13.05,12.91,5.01,12.91,13.05Zm-18.16-.05c0,4.47,1.67,7.12,5.25,7.12s5.2-2.65,5.2-7.12-1.67-7.07-5.2-7.07-5.25,2.6-5.25,7.07Z"/><path class="cls-2" d="M169.65,104.95c-.59-1.08-1.18-2.75-1.28-4.07-1.72,2.31-4.22,4.07-7.51,4.07-5.35,0-8.49-2.75-8.49-9.18v-16.39h7.8v15.6c0,2.7,1.18,3.68,3.14,3.68s3.39-1.03,4.66-3.34v-15.95h7.56v15.21c0,4.56,.25,7.16,.93,9.52l-6.82,.83Z"/><path class="cls-2" d="M192.47,95.63c.05,1.91,.88,2.9,2.8,2.9,.98,0,1.96-.25,2.7-.54v5.89c-.88,.59-2.94,1.08-5.45,1.08-5.3,0-7.85-3.29-7.85-7.75v-11.83h-4.56v-4.61l4.66-1.28,2.26-7.46h5.45v7.36h6.62v5.99h-6.62v10.26Z"/><path class="cls-2" d="M220.53,79.34l-.05,7.16c-.79-.54-2.01-.79-3.14-.79-2.16,0-3.88,1.32-5.05,5.4v13.35h-7.8v-18.75c0-2.06-.2-3.58-.88-5.59l6.28-1.13c.98,1.42,1.62,3.34,1.67,5.64,1.13-3.88,3.14-5.64,6.28-5.64,1.08,0,2.11,.15,2.7,.34Z"/><path class="cls-2" d="M248.99,92c0,8.1-4.66,12.96-12.91,12.96s-12.96-4.86-12.96-12.96,4.66-13.05,12.96-13.05,12.91,5.01,12.91,13.05Zm-18.16-.05c0,4.47,1.67,7.12,5.25,7.12s5.2-2.65,5.2-7.12-1.67-7.07-5.2-7.07-5.25,2.6-5.25,7.07Z"/></g></g></g></svg>