<?xml version="1.0" encoding="UTF-8"?>
<svg id="Layer_2" data-name="Layer 2" xmlns="http://www.w3.org/2000/svg" viewBox="0 0 218.83 71.62">
  <defs>
    <style>
      .cls-1 {
        fill: #2e3191;
      }

      .cls-2 {
        fill: #54e1ff;
      }
    </style>
  </defs>
  <g id="Layer_1-2" data-name="Layer 1">
    <g>
      <rect class="cls-2" x="0" y="0" width="218.83" height="71.62" rx="35.81" ry="35.81"/>
      <g>
        <g>
          <path class="cls-1" d="m60.34,18.36v-4.17h4.39v4.17h-4.39Zm0,16.67v-14.1h4.39v14.1h-4.39Z"/>
          <path class="cls-1" d="m81.56,25.07v9.96h-4.39v-8.97c0-1.27-.5-1.74-1.68-1.74-.94,0-1.9.41-2.62,1.49v9.22h-4.39v-8.5c0-2.57-.14-4.03-.55-5.35l4-.47c.33.66.66,1.63.72,2.43,1.08-1.77,2.46-2.43,4.61-2.43,3.09,0,4.31,1.41,4.31,4.36Z"/>
          <path class="cls-1" d="m90.8,30.06c.03,1.08.5,1.63,1.57,1.63.55,0,1.1-.14,1.52-.3v3.31c-.5.33-1.66.61-3.06.61-2.98,0-4.42-1.85-4.42-4.36v-6.65h-2.57v-2.59l2.62-.72,1.27-4.2h3.06v4.14h3.73v3.37h-3.73v5.77Z"/>
          <path class="cls-1" d="m106.59,20.9l-.03,4.03c-.44-.3-1.13-.44-1.77-.44-1.21,0-2.18.75-2.84,3.04v7.51h-4.39v-10.54c0-1.16-.11-2.01-.5-3.15l3.53-.63c.55.8.91,1.88.94,3.17.63-2.18,1.77-3.17,3.53-3.17.61,0,1.19.08,1.52.19Z"/>
          <path class="cls-1" d="m122.6,28.02c0,4.55-2.62,7.29-7.26,7.29s-7.29-2.73-7.29-7.29,2.62-7.34,7.29-7.34,7.26,2.82,7.26,7.34Zm-10.21-.03c0,2.51.94,4,2.95,4s2.93-1.49,2.93-4-.94-3.97-2.93-3.97-2.95,1.46-2.95,3.97Z"/>
          <path class="cls-1" d="m151.82,35.03h-4.5l-1.02-1.19c-1.41.97-3.39,1.46-5.88,1.46-5.11,0-7.65-1.63-7.65-5.24,0-1.9.66-3.04,2.1-4.28l1.21-1.05c-1.1-1.13-1.77-2.26-1.77-4.03,0-3.2,2.37-5.16,7.12-5.16,4.47,0,6.65,1.35,6.65,3.67,0,.61-.08,1.1-.33,1.68h-3.97c.06-.17.08-.5.08-.66,0-.86-.72-1.38-2.46-1.38-1.93,0-2.87.66-2.87,2.1,0,1.05.77,1.74,2.04,2.95l4.72,4.39v-3.64h3.7v3.59c0,1.16-.19,2.21-.61,3.09l3.42,3.53v.17Zm-11.21-2.87c1.38,0,2.51-.25,3.31-.83l-.52-.52-4.36-4.25-.75.63c-.97.83-1.44,1.41-1.44,2.48,0,1.6,1.13,2.48,3.75,2.48Z"/>
        </g>
        <g>
          <path class="cls-1" d="m101.31,50.14c0,4.55-2.62,7.29-7.26,7.29s-7.29-2.73-7.29-7.29,2.62-7.34,7.29-7.34,7.26,2.82,7.26,7.34Zm-10.21-.03c0,2.51.94,4,2.95,4s2.93-1.49,2.93-4-.94-3.97-2.93-3.97-2.95,1.46-2.95,3.97Z"/>
          <path class="cls-1" d="m113.87,57.43c-.33-.61-.66-1.55-.72-2.29-.97,1.3-2.37,2.29-4.22,2.29-3.01,0-4.78-1.55-4.78-5.16v-9.22h4.39v8.78c0,1.52.66,2.07,1.77,2.07s1.9-.58,2.62-1.88v-8.97h4.25v8.56c0,2.57.14,4.03.52,5.35l-3.84.47Z"/>
          <path class="cls-1" d="m126.7,52.19c.03,1.08.5,1.63,1.57,1.63.55,0,1.1-.14,1.52-.3v3.31c-.5.33-1.66.61-3.06.61-2.98,0-4.42-1.85-4.42-4.36v-6.65h-2.57v-2.59l2.62-.72,1.27-4.2h3.06v4.14h3.73v3.37h-3.73v5.77Z"/>
          <path class="cls-1" d="m142.49,43.02l-.03,4.03c-.44-.3-1.13-.44-1.77-.44-1.21,0-2.18.75-2.84,3.04v7.51h-4.39v-10.54c0-1.16-.11-2.01-.5-3.15l3.53-.63c.55.8.91,1.88.94,3.17.63-2.18,1.77-3.17,3.53-3.17.61,0,1.19.08,1.52.19Z"/>
          <path class="cls-1" d="m158.49,50.14c0,4.55-2.62,7.29-7.26,7.29s-7.29-2.73-7.29-7.29,2.62-7.34,7.29-7.34,7.26,2.82,7.26,7.34Zm-10.21-.03c0,2.51.94,4,2.95,4s2.93-1.49,2.93-4-.94-3.97-2.93-3.97-2.95,1.46-2.95,3.97Z"/>
        </g>
      </g>
    </g>
  </g>
</svg>