<?xml version="1.0" encoding="UTF-8"?>
<svg id="Layer_2" data-name="Layer 2" xmlns="http://www.w3.org/2000/svg" viewBox="0 0 218.83 71.62">
  <defs>
    <style>
      .cls-1 {
        fill: #2e3191;
      }

      .cls-2 {
        fill: #71d7ad;
      }
    </style>
  </defs>
  <g id="Layer_1-2" data-name="Layer 1">
    <g>
      <rect class="cls-1" x="0" y="0" width="218.83" height="71.62" rx="35.81" ry="35.81"/>
      <g>
        <g>
          <path class="cls-2" d="m69.22,26.02c0,.94.39,1.32,1.19,1.32.41,0,.83-.08,1.1-.19v3.34c-.44.28-1.19.47-2.26.47-3.04,0-4.42-1.55-4.42-4.06V9.85h4.39v16.17Z"/>
          <path class="cls-2" d="m88.05,23.68c0,4.55-2.62,7.29-7.26,7.29s-7.29-2.73-7.29-7.29,2.62-7.34,7.29-7.34,7.26,2.82,7.26,7.34Zm-10.21-.03c0,2.51.94,4,2.95,4s2.93-1.49,2.93-4-.94-3.97-2.93-3.97-2.95,1.46-2.95,3.97Z"/>
          <path class="cls-2" d="m99.94,28.43c3.56.3,4.91,1.68,4.91,4.06,0,3.2-2.73,4.97-7.84,4.97-4.58,0-6.93-1.44-6.93-4.2,0-1.32.58-2.37,1.9-3.17-.58-.5-.91-1.19-.91-2.13,0-1.27.63-2.07,1.44-2.68-1.3-.94-1.99-2.32-1.99-3.97,0-3.06,2.46-4.97,6.46-4.97.91,0,1.77.11,2.51.28.58-2.32,1.85-3.37,4.47-3.37v3.06c-1.41,0-2.15.28-2.7,1.05,1.41.86,2.21,2.21,2.21,3.95,0,3.06-2.37,5.19-6.49,5.19-.91,0-1.71-.11-2.46-.3-.14.22-.22.44-.22.75,0,.72.58,1.08,1.79,1.19l3.84.3Zm.94,4.33c0-.69-.44-1.13-2.01-1.3l-3.67-.33-.17-.03c-1.05.52-1.38,1.05-1.38,1.79-.03,1.19,1.08,1.85,3.59,1.85,2.35,0,3.64-.75,3.64-1.99Zm-6.32-11.37c0,1.35.88,2.37,2.46,2.37,1.68,0,2.48-1.08,2.48-2.35,0-1.44-.88-2.35-2.48-2.35s-2.46.91-2.46,2.32Z"/>
          <path class="cls-2" d="m120.31,23.68c0,4.55-2.62,7.29-7.26,7.29s-7.29-2.73-7.29-7.29,2.62-7.34,7.29-7.34,7.26,2.82,7.26,7.34Zm-10.21-.03c0,2.51.94,4,2.95,4s2.93-1.49,2.93-4-.94-3.97-2.93-3.97-2.95,1.46-2.95,3.97Z"/>
        </g>
        <g>
          <path class="cls-2" d="m57.19,51.71v2.43c-.52.44-1.57.61-2.46.61-1.71,0-2.62-.77-2.98-1.99-1.02,1.38-2.84,2.01-4.44,2.01-2.48,0-4.39-1.27-4.39-4,0-2.35,1.21-3.48,4-3.92l4.53-.8v-1.02c0-1.57-.83-2.18-2.24-2.18s-1.96.52-1.96,1.3c0,.22.05.55.17.69h-3.7c-.17-.33-.25-.8-.25-1.19,0-2.21,1.85-3.51,5.91-3.51s6.46,1.55,6.46,5.24v5.44c0,.8.25.99.75.99.17,0,.47-.03.61-.11Zm-5.74-1.27v-2.13l-2.73.55c-1.13.22-1.57.63-1.57,1.49s.55,1.52,1.6,1.52c.88,0,1.82-.39,2.71-1.44Z"/>
          <path class="cls-2" d="m73,44.53v9.96h-4.39v-8.97c0-1.27-.5-1.74-1.68-1.74-.94,0-1.9.41-2.62,1.49v9.22h-4.39v-8.5c0-2.57-.14-4.03-.55-5.35l4-.47c.33.66.66,1.63.72,2.43,1.08-1.77,2.46-2.43,4.61-2.43,3.09,0,4.31,1.41,4.31,4.36Z"/>
          <path class="cls-2" d="m76.53,37.83v-4.17h4.39v4.17h-4.39Zm0,16.67v-14.1h4.39v14.1h-4.39Z"/>
          <path class="cls-2" d="m106.12,44.75v9.74h-4.36v-9.03c0-1.3-.77-1.68-1.68-1.68-1.16,0-1.9.44-2.48,1.41v9.3h-4.39v-9.03c0-1.24-.69-1.68-1.66-1.68-1.19,0-1.88.47-2.48,1.44v9.27h-4.39v-8.5c0-2.65-.14-4.08-.55-5.35l4-.44c.33.5.63,1.35.72,2.07.91-1.32,2.4-2.1,4.55-2.1,1.88,0,3.2.66,3.81,2.18.88-1.3,2.43-2.18,4.64-2.18,2.79,0,4.28,1.35,4.28,4.58Z"/>
          <path class="cls-2" d="m123.26,51.71v2.43c-.52.44-1.57.61-2.46.61-1.71,0-2.62-.77-2.98-1.99-1.02,1.38-2.84,2.01-4.44,2.01-2.48,0-4.39-1.27-4.39-4,0-2.35,1.21-3.48,4-3.92l4.53-.8v-1.02c0-1.57-.83-2.18-2.24-2.18s-1.96.52-1.96,1.3c0,.22.06.55.17.69h-3.7c-.17-.33-.25-.8-.25-1.19,0-2.21,1.85-3.51,5.91-3.51s6.46,1.55,6.46,5.24v5.44c0,.8.25.99.75.99.17,0,.47-.03.61-.11Zm-5.74-1.27v-2.13l-2.73.55c-1.13.22-1.57.63-1.57,1.49s.55,1.52,1.6,1.52c.88,0,1.82-.39,2.7-1.44Z"/>
          <path class="cls-2" d="m131.23,49.53c.03,1.08.5,1.63,1.57,1.63.55,0,1.1-.14,1.52-.3v3.31c-.5.33-1.66.61-3.06.61-2.98,0-4.42-1.85-4.42-4.36v-6.65h-2.57v-2.59l2.62-.72,1.27-4.2h3.06v4.14h3.73v3.37h-3.73v5.77Z"/>
          <path class="cls-2" d="m137.94,37.83v-4.17h4.39v4.17h-4.39Zm0,16.67v-14.1h4.39v14.1h-4.39Z"/>
          <path class="cls-2" d="m159.77,47.49c0,4.55-2.62,7.29-7.26,7.29s-7.29-2.73-7.29-7.29,2.62-7.34,7.29-7.34,7.26,2.82,7.26,7.34Zm-10.21-.03c0,2.51.94,4,2.95,4s2.93-1.49,2.93-4-.94-3.97-2.93-3.97-2.95,1.46-2.95,3.97Z"/>
          <path class="cls-2" d="m175.91,44.53v9.96h-4.39v-8.97c0-1.27-.5-1.74-1.68-1.74-.94,0-1.9.41-2.62,1.49v9.22h-4.39v-8.5c0-2.57-.14-4.03-.55-5.35l4-.47c.33.66.66,1.63.72,2.43,1.08-1.77,2.46-2.43,4.61-2.43,3.09,0,4.31,1.41,4.31,4.36Z"/>
        </g>
      </g>
    </g>
  </g>
</svg>