<?xml version="1.0" encoding="UTF-8"?><svg id="Layer_2" xmlns="http://www.w3.org/2000/svg" viewBox="0 0 339.58 127.34"><defs><style>.cls-1{fill:#db71bc;}.cls-2{fill:#b8ffdb;}</style></defs><g id="Layer_1-2"><g><rect class="cls-2" y="0" width="339.58" height="127.34" rx="10" ry="10"/><g><path class="cls-1" d="M100.9,53.84c0,1.67,.69,2.36,2.11,2.36,.74,0,1.47-.15,1.96-.34v5.94c-.79,.49-2.11,.83-4.02,.83-5.4,0-7.85-2.75-7.85-7.21V25.08h7.8v28.76Z"/><path class="cls-1" d="M134.37,49.67c0,8.1-4.66,12.96-12.91,12.96s-12.96-4.86-12.96-12.96,4.66-13.05,12.96-13.05,12.91,5.01,12.91,13.05Zm-18.16-.05c0,4.47,1.67,7.12,5.25,7.12s5.2-2.65,5.2-7.12-1.67-7.07-5.2-7.07-5.25,2.6-5.25,7.07Z"/><path class="cls-1" d="M155.51,58.11c6.33,.54,8.73,2.99,8.73,7.21,0,5.69-4.86,8.83-13.94,8.83-8.15,0-12.32-2.55-12.32-7.46,0-2.36,1.03-4.22,3.39-5.64-1.03-.88-1.62-2.11-1.62-3.78,0-2.26,1.13-3.68,2.55-4.76-2.31-1.67-3.53-4.12-3.53-7.07,0-5.45,4.37-8.83,11.48-8.83,1.62,0,3.14,.2,4.47,.49,1.03-4.12,3.29-5.99,7.95-5.99v5.45c-2.5,0-3.83,.49-4.81,1.86,2.5,1.52,3.93,3.93,3.93,7.02,0,5.45-4.22,9.23-11.53,9.23-1.62,0-3.04-.2-4.37-.54-.25,.39-.39,.79-.39,1.32,0,1.28,1.03,1.91,3.19,2.11l6.82,.54Zm1.67,7.7c0-1.23-.79-2.01-3.58-2.31l-6.53-.59-.29-.05c-1.86,.93-2.45,1.86-2.45,3.19-.05,2.11,1.91,3.29,6.38,3.29,4.17,0,6.48-1.32,6.48-3.53Zm-11.24-20.22c0,2.4,1.57,4.22,4.37,4.22,2.99,0,4.42-1.91,4.42-4.17,0-2.55-1.57-4.17-4.42-4.17s-4.37,1.62-4.37,4.12Z"/><path class="cls-1" d="M191.73,49.67c0,8.1-4.66,12.96-12.91,12.96s-12.96-4.86-12.96-12.96,4.66-13.05,12.96-13.05,12.91,5.01,12.91,13.05Zm-18.16-.05c0,4.47,1.67,7.12,5.25,7.12s5.2-2.65,5.2-7.12-1.67-7.07-5.2-7.07-5.25,2.6-5.25,7.07Z"/></g><g><path class="cls-1" d="M79.5,99.5v4.32c-.93,.79-2.8,1.08-4.37,1.08-3.04,0-4.66-1.37-5.3-3.53-1.82,2.45-5.05,3.58-7.9,3.58-4.42,0-7.8-2.26-7.8-7.12,0-4.17,2.16-6.18,7.12-6.97l8.05-1.42v-1.82c0-2.8-1.47-3.88-3.98-3.88s-3.48,.93-3.48,2.31c0,.39,.1,.98,.29,1.23h-6.58c-.29-.59-.44-1.42-.44-2.11,0-3.93,3.29-6.23,10.5-6.23s11.48,2.75,11.48,9.32v9.67c0,1.42,.44,1.77,1.32,1.77,.29,0,.83-.05,1.08-.2Zm-10.21-2.26v-3.78l-4.86,.98c-2.01,.39-2.8,1.13-2.8,2.65s.98,2.7,2.85,2.7c1.57,0,3.24-.69,4.81-2.55Z"/><path class="cls-1" d="M107.62,86.75v17.72h-7.8v-15.95c0-2.26-.88-3.09-2.99-3.09-1.67,0-3.39,.74-4.66,2.65v16.39h-7.8v-15.11c0-4.56-.25-7.16-.98-9.52l7.12-.83c.59,1.18,1.18,2.9,1.28,4.32,1.91-3.14,4.37-4.32,8.19-4.32,5.5,0,7.66,2.5,7.66,7.75Z"/><path class="cls-1" d="M113.89,74.82v-7.41h7.8v7.41h-7.8Zm0,29.64v-25.08h7.8v25.08h-7.8Z"/><path class="cls-1" d="M166.5,87.14v17.32h-7.75v-16.05c0-2.31-1.37-2.99-2.99-2.99-2.06,0-3.39,.79-4.42,2.5v16.54h-7.8v-16.05c0-2.21-1.23-2.99-2.94-2.99-2.11,0-3.34,.83-4.42,2.55v16.49h-7.8v-15.11c0-4.71-.25-7.26-.98-9.52l7.12-.79c.59,.88,1.13,2.4,1.28,3.68,1.62-2.36,4.27-3.73,8.1-3.73,3.34,0,5.69,1.18,6.77,3.88,1.57-2.31,4.32-3.88,8.24-3.88,4.96,0,7.61,2.4,7.61,8.15Z"/><path class="cls-1" d="M196.96,99.5v4.32c-.93,.79-2.8,1.08-4.37,1.08-3.04,0-4.66-1.37-5.3-3.53-1.82,2.45-5.05,3.58-7.9,3.58-4.42,0-7.8-2.26-7.8-7.12,0-4.17,2.16-6.18,7.12-6.97l8.05-1.42v-1.82c0-2.8-1.47-3.88-3.97-3.88s-3.48,.93-3.48,2.31c0,.39,.1,.98,.29,1.23h-6.58c-.29-.59-.44-1.42-.44-2.11,0-3.93,3.29-6.23,10.5-6.23s11.48,2.75,11.48,9.32v9.67c0,1.42,.44,1.77,1.33,1.77,.29,0,.83-.05,1.08-.2Zm-10.21-2.26v-3.78l-4.86,.98c-2.01,.39-2.8,1.13-2.8,2.65s.98,2.7,2.85,2.7c1.57,0,3.24-.69,4.81-2.55Z"/><path class="cls-1" d="M211.14,95.63c.05,1.91,.88,2.9,2.8,2.9,.98,0,1.96-.25,2.7-.54v5.89c-.88,.59-2.94,1.08-5.45,1.08-5.3,0-7.85-3.29-7.85-7.75v-11.83h-4.56v-4.61l4.66-1.28,2.26-7.46h5.45v7.36h6.62v5.99h-6.62v10.26Z"/><path class="cls-1" d="M223.07,74.82v-7.41h7.8v7.41h-7.8Zm0,29.64v-25.08h7.8v25.08h-7.8Z"/><path class="cls-1" d="M261.88,92c0,8.1-4.66,12.96-12.91,12.96s-12.96-4.86-12.96-12.96,4.66-13.05,12.96-13.05,12.91,5.01,12.91,13.05Zm-18.16-.05c0,4.47,1.67,7.12,5.25,7.12s5.2-2.65,5.2-7.12-1.67-7.07-5.2-7.07-5.25,2.6-5.25,7.07Z"/><path class="cls-1" d="M290.58,86.75v17.72h-7.8v-15.95c0-2.26-.88-3.09-2.99-3.09-1.67,0-3.39,.74-4.66,2.65v16.39h-7.8v-15.11c0-4.56-.25-7.16-.98-9.52l7.12-.83c.59,1.18,1.18,2.9,1.28,4.32,1.91-3.14,4.37-4.32,8.2-4.32,5.5,0,7.66,2.5,7.66,7.75Z"/></g></g></g></svg>