<?xml version="1.0" encoding="UTF-8"?>
<svg id="Layer_2" data-name="Layer 2" xmlns="http://www.w3.org/2000/svg" viewBox="0 0 218.83 71.62">
  <defs>
    <style>
      .cls-1 {
        fill: #2e3191;
      }

      .cls-2 {
        fill: #54e1ff;
      }
    </style>
  </defs>
  <g id="Layer_1-2" data-name="Layer 1">
    <rect class="cls-1" x="0" y="0" width="218.83" height="71.62" rx="35.81" ry="35.81"/>
    <g>
      <g>
        <path class="cls-2" d="m70.13,26c0,.94.39,1.32,1.19,1.32.41,0,.83-.08,1.1-.19v3.34c-.44.28-1.19.47-2.26.47-3.04,0-4.42-1.55-4.42-4.06V9.83h4.39v16.17Z"/>
        <path class="cls-2" d="m88.96,23.65c0,4.55-2.62,7.29-7.26,7.29s-7.29-2.73-7.29-7.29,2.62-7.34,7.29-7.34,7.26,2.82,7.26,7.34Zm-10.21-.03c0,2.51.94,4,2.95,4s2.93-1.49,2.93-4-.94-3.97-2.93-3.97-2.95,1.46-2.95,3.97Z"/>
        <path class="cls-2" d="m100.85,28.4c3.56.3,4.91,1.68,4.91,4.06,0,3.2-2.73,4.97-7.84,4.97-4.58,0-6.93-1.44-6.93-4.2,0-1.32.58-2.37,1.9-3.17-.58-.5-.91-1.19-.91-2.13,0-1.27.63-2.07,1.44-2.68-1.3-.94-1.99-2.32-1.99-3.97,0-3.06,2.46-4.97,6.46-4.97.91,0,1.77.11,2.51.28.58-2.32,1.85-3.37,4.47-3.37v3.06c-1.41,0-2.15.28-2.7,1.05,1.41.86,2.21,2.21,2.21,3.95,0,3.06-2.37,5.19-6.49,5.19-.91,0-1.71-.11-2.46-.3-.14.22-.22.44-.22.75,0,.72.58,1.08,1.79,1.19l3.84.3Zm.94,4.33c0-.69-.44-1.13-2.01-1.3l-3.67-.33-.17-.03c-1.05.52-1.38,1.05-1.38,1.79-.03,1.19,1.08,1.85,3.59,1.85,2.35,0,3.64-.75,3.64-1.99Zm-6.32-11.37c0,1.35.88,2.37,2.46,2.37,1.68,0,2.48-1.08,2.48-2.35,0-1.44-.88-2.35-2.48-2.35s-2.46.91-2.46,2.32Z"/>
        <path class="cls-2" d="m121.22,23.65c0,4.55-2.62,7.29-7.26,7.29s-7.29-2.73-7.29-7.29,2.62-7.34,7.29-7.34,7.26,2.82,7.26,7.34Zm-10.21-.03c0,2.51.94,4,2.95,4s2.93-1.49,2.93-4-.94-3.97-2.93-3.97-2.95,1.46-2.95,3.97Z"/>
      </g>
      <g>
        <path class="cls-2" d="m81.42,50.87c0,1.49.11,2.35.47,3.7l-3.17.75c-.61-.5-.97-1.1-1.1-1.85h-.14c-.8,1.13-2.32,1.85-4.28,1.85-3.28,0-5.52-2.68-5.52-7.34,0-5,2.9-7.29,6.93-7.29.91,0,1.68.14,2.4.39v-6.87h4.42v16.67Zm-4.39-.33v-6.38c-.47-.22-1.08-.36-1.68-.36-2.07,0-3.23,1.3-3.23,4.08,0,2.59,1.02,4.14,2.59,4.14,1.02,0,1.82-.5,2.32-1.49Z"/>
        <path class="cls-2" d="m97.84,50.45c.05.08.08.39.08.69,0,2.04-1.88,4.17-6.02,4.17-4.75,0-7.48-3.09-7.48-7.29.03-4.39,2.68-7.34,7.51-7.34,4.14,0,6.16,2.62,6.16,5.49,0,.61-.08,1.68-.19,2.24h-9c.11,2.26,1.16,3.73,3.06,3.73,1.63,0,2.29-.8,2.29-1.49,0-.08,0-.17-.03-.19h3.62Zm-8.8-4.33h5.11c.03-.08.06-.22.06-.44,0-1.46-.8-2.24-2.26-2.24s-2.51.88-2.9,2.68Z"/>
        <path class="cls-2" d="m112.66,43.83c0,.61-.14,1.02-.28,1.24h-3.78c.03-.14.06-.3.06-.5,0-.72-.47-1.24-1.96-1.24-1.38,0-2.18.5-2.18,1.35,0,.61.33.97,1.21,1.21l3.28.75c2.71.58,4.08,1.57,4.08,3.84,0,3.01-2.29,4.83-6.79,4.83-3.51,0-5.99-.88-5.99-3.64,0-.39.06-.75.25-1.05l3.78.03c-.03.11-.06.28-.06.47,0,.91.77,1.38,2.1,1.38s2.1-.58,2.1-1.52c0-.75-.44-1.05-1.6-1.35l-3.04-.69c-2.48-.47-3.45-1.85-3.45-3.75,0-2.82,2.35-4.5,6.6-4.5,3.34,0,5.66.99,5.66,3.15Z"/>
        <path class="cls-2" d="m115.75,38.36v-4.17h4.39v4.17h-4.39Zm0,16.67v-14.1h4.39v14.1h-4.39Z"/>
        <path class="cls-2" d="m132.86,52.77c3.56.3,4.91,1.68,4.91,4.06,0,3.2-2.73,4.97-7.84,4.97-4.58,0-6.93-1.44-6.93-4.2,0-1.32.58-2.37,1.9-3.17-.58-.5-.91-1.19-.91-2.13,0-1.27.63-2.07,1.44-2.68-1.3-.94-1.99-2.32-1.99-3.97,0-3.06,2.46-4.97,6.46-4.97.91,0,1.77.11,2.51.28.58-2.32,1.85-3.37,4.47-3.37v3.06c-1.41,0-2.15.28-2.7,1.05,1.41.86,2.21,2.21,2.21,3.95,0,3.06-2.37,5.19-6.49,5.19-.91,0-1.71-.11-2.46-.3-.14.22-.22.44-.22.75,0,.72.58,1.08,1.79,1.19l3.84.3Zm.94,4.33c0-.69-.44-1.13-2.01-1.3l-3.67-.33-.17-.03c-1.05.52-1.38,1.05-1.38,1.79-.03,1.19,1.08,1.85,3.59,1.85,2.35,0,3.64-.75,3.64-1.99Zm-6.32-11.37c0,1.35.88,2.37,2.46,2.37,1.68,0,2.48-1.08,2.48-2.35,0-1.44-.88-2.35-2.48-2.35s-2.46.91-2.46,2.32Z"/>
        <path class="cls-2" d="m153.09,45.07v9.96h-4.39v-8.97c0-1.27-.5-1.74-1.68-1.74-.94,0-1.9.41-2.62,1.49v9.22h-4.39v-8.5c0-2.57-.14-4.03-.55-5.35l4-.47c.33.66.66,1.63.72,2.43,1.08-1.77,2.46-2.43,4.61-2.43,3.09,0,4.31,1.41,4.31,4.36Z"/>
      </g>
    </g>
  </g>
</svg>