<?xml version="1.0" encoding="UTF-8"?><svg id="Layer_2" xmlns="http://www.w3.org/2000/svg" xmlns:xlink="http://www.w3.org/1999/xlink" viewBox="0 0 2045.43 1105.49"><defs><style>.cls-1{fill:#fff;}.cls-2{clip-path:url(#clippath);}.cls-3{fill:#2f358b;opacity:.04;}.cls-4{fill:none;}</style><clipPath id="clippath"><rect class="cls-4" x="0" width="2045.43" height="1105.49"/></clipPath></defs><g id="Layer_1-2"><g class="cls-2"><g><path class="cls-3" d="M3360.35,532.15c-136.76,0-136.76-189.52-273.52-189.52s-136.76,189.52-273.52,189.52-136.76-189.52-273.51-189.52-136.75,189.52-273.51,189.52-136.74-189.52-273.47-189.52-136.75,189.52-273.5,189.52-136.76-189.52-273.51-189.52-136.75,189.52-273.51,189.52-136.75-189.52-273.49-189.52c-.33,0-.62-.04-.95-.04-136.78,0-136.78,189.52-273.55,189.52s-136.76-189.52-273.52-189.52-136.76,189.52-273.52,189.52S-59.51,342.6-196.26,342.6s-136.75,189.52-273.51,189.52-136.74-189.52-273.47-189.52-136.75,189.52-273.5,189.52-136.76-189.52-273.51-189.52-136.75,189.52-273.51,189.52-136.75-189.52-273.49-189.52c-.16,0-.3,.02-.46,.02v111.49c.2,0,.39-.03,.59-.03,136.76,0,136.76,189.52,273.52,189.52s136.76-189.52,273.52-189.52,136.76,189.52,273.51,189.52,136.75-189.52,273.51-189.52,136.74,189.52,273.47,189.52,136.75-189.52,273.5-189.52S-59.34,643.59,77.42,643.59s136.75-189.52,273.51-189.52,136.75,189.52,273.49,189.52,136.74-189.52,273.49-189.52c.15,0,.28,0,.42,.02v.05c.2,0,.39-.03,.59-.03,136.76,0,136.76,189.52,273.52,189.52s136.76-189.52,273.52-189.52,136.76,189.52,273.51,189.52,136.75-189.52,273.51-189.52,136.74,189.52,273.48,189.52,136.75-189.52,273.5-189.52,136.76,189.52,273.51,189.52,136.75-189.52,273.51-189.52,136.75,189.52,273.49,189.52,136.74-189.52,273.49-189.52c.3,0,.58,.04,.88,.04v-111.48c-.33,0-.62-.04-.95-.04-136.78,0-136.78,189.52-273.55,189.52Z"/><path class="cls-3" d="M3360.35,231.13c-136.76,0-136.76-189.52-273.52-189.52s-136.76,189.52-273.52,189.52-136.76-189.52-273.51-189.52-136.75,189.52-273.51,189.52-136.74-189.52-273.47-189.52-136.75,189.52-273.5,189.52-136.76-189.52-273.51-189.52-136.75,189.52-273.51,189.52S1035.54,41.62,898.8,41.62c-.33,0-.62-.04-.95-.04-136.78,0-136.78,189.52-273.55,189.52S487.53,41.58,350.77,41.58,214.01,231.09,77.25,231.09-59.51,41.58-196.26,41.58s-136.75,189.52-273.51,189.52S-606.51,41.58-743.24,41.58s-136.75,189.52-273.5,189.52-136.76-189.52-273.51-189.52-136.75,189.52-273.51,189.52-136.75-189.52-273.49-189.52c-.16,0-.3,.02-.46,.02v111.49c.2,0,.39-.03,.59-.03,136.76,0,136.76,189.52,273.52,189.52s136.76-189.52,273.52-189.52,136.76,189.52,273.51,189.52,136.75-189.52,273.51-189.52,136.74,189.52,273.47,189.52S-332.84,153.06-196.09,153.06-59.34,342.57,77.42,342.57,214.18,153.06,350.93,153.06s136.75,189.52,273.49,189.52,136.74-189.52,273.49-189.52c.15,0,.28,0,.42,.02v.05c.2,0,.39-.03,.59-.03,136.76,0,136.76,189.52,273.52,189.52s136.76-189.52,273.52-189.52,136.76,189.52,273.51,189.52,136.75-189.52,273.51-189.52,136.74,189.52,273.48,189.52,136.75-189.52,273.5-189.52,136.76,189.52,273.51,189.52,136.75-189.52,273.51-189.52,136.75,189.52,273.49,189.52,136.74-189.52,273.49-189.52c.3,0,.58,.04,.88,.04V41.66c-.33,0-.62-.04-.95-.04-136.78,0-136.78,189.52-273.55,189.52Z"/><path class="cls-1" d="M4513.89,809.71c-136.76,0-136.76-189.52-273.52-189.52s-136.76,189.52-273.52,189.52-136.76-189.52-273.51-189.52-136.75,189.52-273.51,189.52-136.74-189.52-273.47-189.52-136.75,189.52-273.5,189.52-136.76-189.52-273.51-189.52-136.75,189.52-273.51,189.52-136.75-189.52-273.49-189.52c-.33,0-.62-.04-.95-.04-136.78,0-136.78,189.52-273.55,189.52s-136.76-189.52-273.52-189.52-136.76,189.52-273.52,189.52-136.76-189.52-273.51-189.52-136.75,189.52-273.51,189.52-136.74-189.52-273.47-189.52-136.75,189.52-273.5,189.52S.03,620.15-136.73,620.15s-136.75,189.52-273.51,189.52-136.75-189.52-273.49-189.52c-.16,0-.3,.02-.46,.02v111.49c.2,0,.39-.03,.59-.03,136.76,0,136.76,189.52,273.52,189.52s136.76-189.52,273.52-189.52S.2,921.15,136.96,921.15s136.75-189.52,273.51-189.52,136.74,189.52,273.47,189.52,136.75-189.52,273.5-189.52,136.76,189.52,273.51,189.52,136.75-189.52,273.51-189.52,136.75,189.52,273.49,189.52,136.74-189.52,273.49-189.52c.15,0,.28,0,.42,.02v.05c.2,0,.39-.03,.59-.03,136.76,0,136.76,189.52,273.52,189.52s136.76-189.52,273.52-189.52,136.76,189.52,273.51,189.52,136.75-189.52,273.51-189.52,136.74,189.52,273.48,189.52,136.75-189.52,273.5-189.52,136.76,189.52,273.51,189.52,136.75-189.52,273.51-189.52,136.75,189.52,273.49,189.52,136.74-189.52,273.49-189.52c.3,0,.58,.04,.88,.04v-111.48c-.33,0-.62-.04-.95-.04-136.78,0-136.78,189.52-273.55,189.52Z"/></g></g></g></svg>
