<?xml version="1.0" encoding="UTF-8"?><svg id="Layer_2" xmlns="http://www.w3.org/2000/svg" viewBox="0 0 77.95 35.8"><defs><style>.cls-1{fill:#fff;}.cls-2{fill:#2e3192;}</style></defs><g id="Layer_1-2"><g><g><path class="cls-2" d="M60.05,35.8H17.9C8.05,35.8,0,27.74,0,17.9H0C0,8.05,8.05,0,17.9,0H60.05c9.84,0,17.9,8.05,17.9,17.9h0c0,9.84-8.05,17.9-17.9,17.9Z"/><circle class="cls-1" cx="59.66" cy="17.9" r="12.78" transform="translate(-2.31 24.19) rotate(-22.5)"/></g><g><path class="cls-1" d="M22.75,14.55c0,3.85-2.7,5.97-6.37,5.97-.82,0-1.45-.05-1.92-.12v6.14h-4.12V9.08c1.45-.1,3.07-.17,4.65-.17,5.5,0,7.77,1.77,7.77,5.65Zm-8.29-2.22v5c.37,.12,.82,.15,1.4,.15,1.75,0,2.95-.95,2.95-2.82,0-1.6-1.02-2.35-3.05-2.35-.5,0-.92,0-1.3,.02Z"/><path class="cls-1" d="M33.57,26.54h-4.12V12.7h-5.05l.35-3.57h13.74l.1,3.57h-5.02v13.84Z"/></g></g></g></svg>