<?xml version="1.0" encoding="UTF-8"?><svg id="Layer_2" xmlns="http://www.w3.org/2000/svg" viewBox="0 0 217.61 60.2"><defs><style>.cls-1{fill:#fff;}</style></defs><g id="Layer_1-2"><g><path class="cls-1" d="M137.12,23.5c-.73,0-1.18,.06-1.55,.15v12.73c.49,.06,1,.12,1.7,.12,4.04,0,6.08-2.07,6.08-6.65s-2.07-6.35-6.23-6.35Z"/><path class="cls-1" d="M207.61,0H10C4.48,0,0,4.48,0,10V50.2c0,5.52,4.48,10,10,10H207.61c5.52,0,10-4.48,10-10V10c0-5.52-4.48-10-10-10ZM76.96,40.97c-5.26,0-7.75-2.22-7.75-5.29,0-.73,.15-1.4,.33-1.7h4.5c-.12,.18-.18,.58-.18,.91,0,1.37,1.34,2.16,3.4,2.16s3.28-.88,3.28-2.28c0-.94-.4-1.52-2.13-2.34l-4.44-1.79c-2.83-1.03-4.62-2.46-4.62-5.41,0-3.77,3.16-6.01,8.72-6.01,4.56,0,6.93,1.49,6.93,3.98,0,.76-.21,1.67-.55,2.1h-4.25c.12-.21,.21-.58,.21-.88,0-1-.91-1.61-2.67-1.61-1.85,0-3.16,.73-3.16,2.16,0,1.19,.88,1.67,2.22,2.34l4.47,1.82c2.89,1.22,4.44,2.64,4.44,5.41,0,4.13-3.22,6.44-8.75,6.44Zm25.86-12.85l-.36,3.62h-7.87v4.77h8.84l-.33,4.16h-13.49V19.53h13.49l.33,4.16h-8.84v4.44h8.23Zm22.94,12.49l-3.98,.18-9.75-13.58-.03,.06c.36,1.18,.36,1.97,.36,2.7v10.69h-4.8V19.53l3.98-.18,9.81,13.79,.06-.06c-.36-1.25-.36-2.16-.36-3.07v-10.51h4.71v21.11Zm10.61,.36c-2.01,0-4.25-.18-5.77-.52V19.59c1.64-.24,3.95-.36,5.68-.36,7.99,0,12.12,3.04,12.12,10.6s-4.19,11.15-12.03,11.15Z"/></g></g></svg>